PathFileType	4	(X/Y/Z)	H:\MAC\Pilotos\Biomecanica2_gait_2020\Trimmed_walk1.trc
DataRate	CameraRate	NumFrames	NumMarkers	Units	OrigDataRate	OrigDataStartFrame	OrigNumFrames
150.00	150.00	       8	28	mm	150.00	228	       364
Frame#	Time	R.ASIS			L.ASIS			R.PSIS			L.PSIS			L.Iliac.Crest			R.Iliac.Crest			R.GTR			R.Knee			R.HF			R.TT			R.Ankle			R.Heel			R.MT1			R.MT5			L.GTR			L.Knee			L.HF			L.TT			L.Ankle			L.Heel			L.MT1			L.MT5			R.Knee.Medial			R.Ankle.Medial			R.MT2			L.Knee.Medial			L.Ankle.Medial			L.MT2			
		X1	Y1	Z1	X2	Y2	Z2	X3	Y3	Z3	X4	Y4	Z4	X5	Y5	Z5	X6	Y6	Z6	X7	Y7	Z7	X8	Y8	Z8	X9	Y9	Z9	X10	Y10	Z10	X11	Y11	Z11	X12	Y12	Z12	X13	Y13	Z13	X14	Y14	Z14	X15	Y15	Z15	X16	Y16	Z16	X17	Y17	Z17	X18	Y18	Z18	X19	Y19	Z19	X20	Y20	Z20	X21	Y21	Z21	X22	Y22	Z22	X23	Y23	Z23	X24	Y24	Z24	X25	Y25	Z25	X26	Y26	Z26	X27	Y27	Z27	X28	Y28	Z28	

228	1.513	1629.88477	1031.57324	-444.21796	1635.09363	1041.21899	-212.79793	1441.50745	1065.35168	-359.18234	1444.19360	1067.96033	-261.08875	1553.21216	1100.98279	-163.46738	1538.53418	1089.14624	-484.49847	1528.21265	952.43549	-505.33200	1595.69446	538.01440	-485.71213	1562.54932	493.69470	-490.45834	1608.28455	430.32007	-448.04922	1263.77405	239.81113	-444.68967	1221.39368	265.83774	-385.73721	1323.15381	83.60737	-396.87381	1286.15784	111.14896	-467.94244	1569.85962	944.80231	-140.57373	1593.00085	525.74054	-213.61409	1584.82507	463.20847	-213.05774	1646.80396	437.77344	-273.52063	1556.84460	73.69388	-261.17963	1500.76978	38.39659	-309.54346	1722.10352	44.37833	-338.65204	1683.16064	35.74562	-251.41466	1620.79321	516.04333	-352.35266	1303.44983	227.70428	-361.40433	1313.60327	83.80661	-426.91721	1599.82996	525.36432	-342.79724	1583.23169	90.37746	-354.36627	1726.40149	37.75348	-298.94650	
229	1.520	1637.63794	1033.01453	-442.90527	1641.93445	1041.75574	-211.69084	1448.94580	1066.35376	-358.79868	1451.64587	1068.92297	-260.66162	1560.86426	1101.82068	-163.01047	1546.27820	1090.70825	-483.44977	1537.37524	953.97308	-505.23962	1609.91125	540.37286	-484.93295	1577.45215	495.88480	-489.56958	1624.23926	432.64505	-447.68317	1281.18396	239.39772	-444.61752	1238.18762	264.18213	-385.25504	1343.09216	83.53538	-398.92813	1305.93311	112.09381	-469.64957	1575.47656	945.00720	-140.07092	1594.19385	525.91333	-213.49298	1585.66138	463.37555	-213.00111	1647.83069	437.62158	-273.08224	1556.83777	73.79543	-261.24649	1500.76978	38.54342	-309.72174	1722.11670	44.39919	-338.54755	1683.12097	35.70546	-251.32465	1634.96985	518.08844	-352.36316	1320.99377	226.97791	-361.40002	1333.76587	84.20739	-429.24033	1602.69360	525.41968	-342.81866	1583.38171	90.46542	-354.35745	1726.41980	37.72979	-298.86990	
230	1.527	1645.52319	1034.48596	-441.53555	1648.80994	1042.38733	-210.48894	1456.35266	1067.34363	-358.54498	1458.92395	1069.87610	-260.36789	1567.24792	1102.45093	-162.40912	1554.24109	1092.43445	-482.84976	1546.56641	955.55255	-505.19922	1624.33325	542.57599	-483.94867	1592.14453	498.01636	-488.81158	1639.96887	434.88602	-447.27579	1298.81213	238.35445	-444.59634	1255.62549	261.64658	-384.55725	1363.53003	83.12523	-400.80185	1326.18921	112.45126	-471.17441	1580.79309	944.99750	-139.74919	1595.40857	526.08984	-213.37035	1586.45398	463.59534	-212.93497	1648.87769	437.43579	-272.64423	1556.82263	73.91007	-261.31021	1500.78113	38.71966	-309.90265	1722.14368	44.42542	-338.42343	1683.09302	35.64409	-251.21692	1649.50378	520.23724	-351.67209	1338.77344	225.74504	-361.39877	1354.39270	84.26180	-431.04129	1605.04419	525.46600	-342.62253	1583.56055	90.58331	-354.34067	1726.44263	37.72638	-298.76312	
231	1.533	1653.41785	1035.90393	-440.08792	1655.40906	1043.01001	-209.21944	1463.74866	1068.18213	-358.39981	1465.99084	1070.67188	-260.15512	1574.48218	1103.17554	-161.87566	1561.88782	1093.92480	-482.11713	1555.74939	957.11133	-505.18796	1638.68408	544.63635	-482.89767	1606.92969	500.01663	-487.98349	1655.60095	437.14450	-446.82532	1316.72571	236.74413	-444.68433	1272.92542	258.69312	-384.32559	1384.63684	82.37698	-402.39316	1346.85938	112.15591	-472.41553	1586.70154	945.32092	-139.42465	1596.64026	526.32446	-213.20392	1587.27649	463.82813	-212.86661	1649.98792	437.31235	-272.17200	1556.81836	74.04699	-261.38034	1500.80151	38.96103	-310.19431	1722.18787	44.46148	-338.25876	1683.05481	35.58141	-251.08278	1663.82422	522.38275	-350.98209	1356.94690	224.09982	-361.58038	1375.47668	83.85481	-432.67920	1609.19690	525.73657	-342.10748	1583.81165	90.73817	-354.31570	1726.49414	37.69273	-298.65051	
232	1.540	1661.23779	1037.22974	-438.54990	1662.03687	1043.61670	-207.90091	1470.89331	1069.20593	-358.49124	1473.03870	1071.42310	-260.12576	1581.47864	1103.85388	-161.22598	1569.68298	1095.33704	-481.24356	1564.90552	958.64404	-505.13074	1652.60205	546.69257	-481.87747	1621.22949	501.81213	-487.15027	1671.23792	439.37067	-446.33566	1335.13281	234.14471	-444.47604	1290.22595	255.32689	-384.44821	1406.33020	81.40719	-403.75699	1367.85596	111.30077	-473.42276	1591.93018	945.60492	-139.06825	1597.80530	526.44958	-212.86736	1588.18323	464.12082	-212.75043	1651.11035	437.23380	-271.70813	1556.83630	74.22836	-261.47418	1500.84753	39.24729	-310.45316	1722.25659	44.52156	-338.07468	1683.02380	35.52093	-250.94475	1679.40186	525.01495	-349.21857	1375.31079	222.08044	-361.77185	1397.17517	82.91064	-434.14404	1611.56299	525.82300	-341.84344	1584.08801	90.92525	-354.29114	1726.53284	37.66808	-298.50787	
233	1.547	1669.06604	1038.48474	-437.03421	1668.44775	1044.25269	-206.62242	1478.23486	1069.90308	-358.62350	1479.91394	1072.09570	-260.25034	1588.28040	1104.39124	-160.65309	1577.39441	1096.63171	-480.33813	1574.14844	960.09747	-505.02301	1666.53979	548.59467	-480.86661	1635.58105	503.47357	-486.30756	1686.57910	441.54074	-445.71600	1353.42590	231.39380	-444.66464	1308.11963	251.02950	-384.34656	1428.66504	80.34115	-404.91614	1389.40662	109.92587	-474.27554	1597.19238	945.84851	-138.76508	1599.01648	526.49774	-213.07364	1589.17969	464.36072	-212.75183	1652.33496	437.13257	-271.25427	1556.87683	74.44987	-261.58429	1500.43018	39.70055	-310.29114	1722.32434	44.57146	-337.90057	1683.00098	35.45452	-250.81290	1694.40430	528.19122	-348.32654	1394.07495	219.58008	-362.05658	1419.35022	81.93349	-435.05493	1614.33594	526.08392	-341.49252	1584.40100	91.14308	-354.30280	1726.59167	37.64381	-298.36807	
234	1.553	1676.92773	1039.61633	-435.52188	1674.84155	1044.82910	-205.37897	1485.56934	1070.51135	-358.90790	1486.67383	1072.78210	-260.48871	1594.96875	1104.88000	-160.04817	1585.00806	1097.77454	-479.47018	1583.27600	961.42267	-504.90866	1680.29211	550.45349	-479.83783	1649.78064	504.93295	-485.42847	1701.99365	443.66895	-445.00208	1371.87366	228.20247	-444.94928	1325.87000	246.37706	-384.50488	1451.78040	79.13490	-405.88800	1412.04797	107.97423	-475.10092	1602.41748	946.01471	-138.50502	1600.55066	526.72314	-212.92274	1590.23279	464.63489	-212.72864	1653.62476	437.09085	-270.78665	1556.91406	74.70484	-261.74091	1500.85901	40.06885	-310.93134	1722.40808	44.62160	-337.70206	1682.97241	35.38166	-250.67868	1707.87073	530.40070	-347.47787	1412.87610	216.88779	-362.17834	1442.34619	80.55002	-436.01599	1616.72620	526.30829	-341.42905	1584.75879	91.40626	-354.34357	1726.67261	37.64078	-298.17181	
235	1.560	1684.58911	1040.58997	-434.02179	1681.15442	1045.28625	-204.15184	1492.74841	1071.08984	-359.25336	1493.41284	1073.31909	-260.78238	1601.22339	1105.24377	-159.50029	1593.80261	1099.05151	-478.94888	1592.32666	962.61084	-504.78497	1694.41089	552.07697	-478.75726	1663.83093	506.10278	-484.52548	1717.00232	445.72781	-444.21710	1390.69226	224.48972	-445.19119	1343.89307	241.00928	-384.68085	1475.53601	77.84442	-406.59515	1434.23499	106.09982	-475.38400	1607.65259	946.11127	-138.26828	1602.15979	527.19830	-212.55238	1591.35242	464.88086	-212.72307	1655.03186	437.03604	-270.34042	1556.95154	74.98803	-261.94107	1500.97668	40.50029	-311.33139	1722.52380	44.67075	-337.50296	1682.94409	35.29652	-250.53929	1721.05737	532.81226	-346.67145	1431.86597	213.87935	-362.16281	1466.12708	78.99558	-436.69357	1619.47559	526.60779	-341.03986	1585.57141	91.76692	-354.73935	1726.74146	37.61300	-298.00870	
